<?xml version="1.0" encoding="utf-8"?>
<!-- Generator: Adobe Illustrator 23.0.5, SVG Export Plug-In . SVG Version: 6.00 Build 0)  -->
<svg version="1.1" id="Layer_1" xmlns="http://www.w3.org/2000/svg" xmlns:xlink="http://www.w3.org/1999/xlink" x="0px" y="0px"
	 viewBox="0 0 200 200" style="enable-background:new 0 0 200 200;" xml:space="preserve">
<style type="text/css">
	.st0{display:none;fill:#F2FBFD;}
	.st1{display:none;opacity:0.5;fill:#B2B2B2;}
	.st2{fill:#FFAD97;}
	.st3{fill:#003755;}
	.st4{fill:#F8B55A;}
	.st5{fill:#EB944D;}
	.st6{fill:#F9B759;}
	.st7{opacity:0.5;fill:#F9B759;}
	.st8{fill:#B2B2B2;}
	.st9{opacity:0.4;fill:#B2B2B2;}
	.st10{fill:#97A2D0;}
	.st11{fill:#747EC1;}
	.st12{fill:#05324F;}
	.st13{fill:#00A0C6;}
	.st14{fill:#3F3F3F;}
	.st15{fill:#999BC5;}
	.st16{fill:#2E3545;}
	.st17{opacity:0.3;}
	.st18{opacity:0.3;fill:#666666;}
	.st19{fill:#334D5C;}
	.st20{fill:#A6A6A6;}
	.st21{fill:#FFFFFF;}
	.st22{fill:#FB392E;}
	.st23{fill:#FECB15;}
	.st24{fill:#26A659;}
	.st25{fill:#E0E0E0;}
	.st26{fill:#E29616;}
	.st27{fill:#F19B0F;}
	.st28{fill:#17BB99;}
	.st29{fill:#FBDD82;}
	.st30{fill:#89C0C8;}
	.st31{fill:#F8981C;}
	.st32{fill:#F8851C;}
	.st33{opacity:0.3;fill:#F8851C;}
	.st34{opacity:0.3;fill:#F8981C;}
	.st35{display:none;}
	.st36{display:inline;opacity:0.3;fill:#B2B2B2;}
	.st37{display:inline;}
	.st38{fill:#C7B0F8;}
	.st39{fill:#383838;}
	.st40{fill:#38424D;}
	.st41{fill:#474E5E;}
	.st42{fill:#25B2C9;}
	.st43{fill:#0298AE;}
	.st44{fill:#DFB815;}
	.st45{fill:#F9392A;}
	.st46{fill:#F83A2A;}
	.st47{display:inline;fill:#BDC2E0;}
	.st48{display:inline;fill:#FFAD97;}
	.st49{display:inline;fill:#05324F;}
	.st50{fill:#DF2A61;}
	.st51{display:inline;fill:#666666;}
	.st52{display:inline;fill:#B2B2B2;}
	.st53{display:inline;fill:#D1D1D1;}
	.st54{fill:#C71A5C;}
	.st55{fill:#666666;}
	.st56{fill:#8C8C8C;}
	.st57{display:inline;fill:#87C446;}
	.st58{display:inline;fill:#C71A5C;}
	.st59{display:inline;fill:#3F3F3F;}
	.st60{fill:#C72A61;}
	.st61{display:inline;fill:#DF2A61;}
	.st62{display:inline;fill:#FEC1AC;}
	.st63{display:inline;fill:#052636;}
	.st64{display:inline;fill:#A6CE49;}
	.st65{display:inline;fill:#F9B759;}
	.st66{fill:#FEC1AC;}
	.st67{fill:#B7B9B6;}
	.st68{fill:#888686;}
	.st69{display:inline;fill:#9B9D9A;}
	.st70{display:inline;opacity:0.2;}
	.st71{display:inline;fill:#7C7F7E;}
	.st72{display:inline;opacity:0.5;fill:#F9B759;}
	.st73{display:inline;opacity:0.5;fill:#B2B2B2;}
	.st74{fill:url(#SVGID_1_);}
	.st75{fill:url(#SVGID_2_);}
	.st76{fill:#87C446;}
	.st77{opacity:0.3;fill:#05324F;}
	.st78{opacity:0.2;fill:#FFAD97;}
	.st79{opacity:0.4;fill:#FFAD97;}
	.st80{fill:url(#SVGID_3_);}
	.st81{fill:url(#SVGID_4_);}
	.st82{opacity:0.3;fill:#D2857C;}
	.st83{fill:url(#SVGID_5_);}
	.st84{fill:url(#SVGID_6_);}
	.st85{fill:url(#SVGID_7_);}
	.st86{fill:#5D4F44;}
	.st87{opacity:0.5;fill:#5D4F44;}
	.st88{opacity:0.1;fill:url(#SVGID_8_);}
	.st89{display:inline;fill:#F8851C;}
	.st90{display:inline;opacity:0.3;fill:#F8851C;}
	.st91{display:inline;opacity:0.3;fill:#F8981C;}
</style>
<g>
	<g>
		<rect class="st0" width="200" height="200"/>
		<g>
			<g>
				<path class="st1" d="M19.51,89.97c0,0.9,16.96,1.63,37.87,1.63c20.92,0,37.87-0.73,37.87-1.63c0-0.9-16.96-1.63-37.87-1.63
					C36.47,88.34,19.51,89.07,19.51,89.97z"/>
				<g>
					<polygon class="st2" points="100.55,157.83 100.55,163.68 107.26,163.68 107.26,157.51 					"/>
					<path class="st3" d="M100.55,161.72c0,0-1.55,0.85-1.55,2.93c0,2.08,0,4.24,0,4.24h23.54c0,0,0.43-2.5-2.8-2.5
						c-3.23,0-8.9-2.01-9.96-2.97c-1.36-1.23-2.33-1.7-3.36-1.7C105.38,161.72,100.55,161.72,100.55,161.72z"/>
				</g>
				<rect x="143.97" y="93.72" class="st4" width="4.16" height="74.5"/>
				<rect x="142.17" y="93.72" class="st5" width="1.8" height="74.5"/>
				<g>
					<rect x="38.17" y="93.72" class="st4" width="4.16" height="74.5"/>
					<rect x="36.37" y="93.72" class="st5" width="1.8" height="74.5"/>
				</g>
				<g>
					<rect x="70.96" y="93.64" class="st4" width="3.75" height="11.91"/>
					<rect x="69.33" y="93.64" class="st5" width="1.62" height="11.91"/>
				</g>
				<rect x="178" y="93.72" class="st4" width="4.02" height="74.5"/>
				<rect x="176.27" y="93.72" class="st5" width="1.74" height="74.5"/>
				<rect x="66.49" y="89.72" class="st6" width="120.01" height="4.57"/>
				<rect x="150.4" y="89.72" class="st7" width="36.17" height="4.57"/>
				<g>
					<rect x="47.81" y="122.5" class="st8" width="6.25" height="43.75"/>
					<rect x="49.32" y="122.5" class="st9" width="1.25" height="43.75"/>
				</g>
				<rect x="113.06" y="77.24" class="st10" width="10.02" height="10.95"/>
				<rect x="123.02" y="77.24" class="st11" width="2.19" height="10.95"/>
				<g>
					<g>
						<polygon class="st2" points="69.21,157.83 69.21,163.68 75.92,163.68 75.92,157.51 						"/>
						<path class="st3" d="M69.21,161.72c0,0-1.55,0.85-1.55,2.93c0,2.08,0,4.24,0,4.24h23.55c0,0,0.42-2.5-2.81-2.5
							c-3.23,0-8.9-2.01-9.96-2.97c-1.36-1.23-2.33-1.7-3.36-1.7C74.04,161.72,69.21,161.72,69.21,161.72z"/>
					</g>
					<path class="st12" d="M74.06,107.51c11.08,4.95,5.96,41.72,2.98,50.62c-4.83,0-9.38,0-9.38,0s-2.84-26.11-2.84-32.2
						C64.82,115.76,74.06,107.51,74.06,107.51z"/>
				</g>
				<path class="st12" d="M67.55,104.46c0,0,26.08-1.91,37.16,3.05c11.08,4.95,5.97,41.72,2.99,50.62c-4.83,0-9.38,0-9.38,0
					s-2.84-26.11-2.84-32.2c0-6.1-5.76-4-6.82-4.95c-1.07-0.95-22.95,1.84-26.58-2.67C58.46,113.79,67.55,104.46,67.55,104.46z"/>
				<g>
					<path class="st2" d="M64.32,31.52c0,0,0.14,5.02,0.14,5.7c0,0.68,1.45,2.97,2.15,3.53c0.69,0.56-0.14,1.67-1.04,1.73
						c-0.9,0.06-0.76,1.11-0.76,2.11c0,2.1,0.14,8.73-7.48,4.58c0,0-1.39,2.65-0.98,4.08l-11.97-1.1c0,0,1.31-2.35,1.11-4.83
						C45.27,44.84,54.86,28.71,64.32,31.52z"/>
					<path class="st12" d="M65.84,26.57c-7-5.11-18.01-4.95-21.13,2.36c0,0-3.62,0.76-4.1,4.58c-0.57,4.57,1.67,14.42,7.49,14.42
						c5.82,0,8.16-2.09,8.16-2.09s-4.21-5.06-1.44-7.01c0.86-0.6,1.75-0.09,1.8,1.26c0.05,1.34-0.15,7.55,0.75,9.29
						c1.36,2.64,3.95,2.25,4.99,2c3.22-0.8,3.13-7.22,2.4-5.31c-0.73,1.91-3.36,1.87-4.68,0.69c-1.32-1.18-2.45-8.05-2.46-8.05
						c0.05-3.29,1.09-7.87,6.68-7.19c0,0,1.45,0.43,3.32,0.56C69.52,32.21,70.05,29.64,65.84,26.57z"/>
				</g>
				<path class="st13" d="M43.45,51.15c0,0-17.89,0.27-17.89,20.28c0,20.01,3.63,44.01,3.63,44.01h31.12c0,0,7.25-0.95,7.25-10.48
					c0-9.52-1.06-25.91,0.21-33.72c1.28-7.81,4.64-15.04-9.48-17.72C46.43,51.27,43.45,51.15,43.45,51.15z"/>
				<rect x="107.34" y="87.94" class="st14" width="27.93" height="1.78"/>
				<g>
					<g>
						<path class="st15" d="M76.3,75.82c0,1.26,1.15,2.28,2.56,2.28h75.24c1.4,0,2.56-1.03,2.56-2.28V35.8
							c0-1.26-1.15-2.29-2.56-2.29H78.86c-1.41,0-2.56,1.03-2.56,2.29V75.82z"/>
					</g>
				</g>
				<path class="st16" d="M154.09,35.79c0,3.6,0,33.39,0,36.99c-4.64,0-70.6,0-75.24,0c0-3.6,0-33.39,0-36.99
					C83.5,35.79,149.45,35.79,154.09,35.79z"/>
				<g class="st17">
					<path d="M88.66,120.97c-1.07-0.95-22.95,1.84-26.58-2.67c-1.42-1.77-0.88-4.29,0.3-6.69c2.29,4.36,4.87,7.2,8.09,7.2h17.26
						c2.38,0,3.64,1.27,3.75,2.56C90.24,121.25,89.08,121.35,88.66,120.97z"/>
					<path d="M25.56,71.43c0-0.44,0.02-0.85,0.03-1.27c7.82,0,21.43-0.23,26.97,14.86c3.79,10.35,6.92,22.36,11.16,28.91
						c-1.74,1.29-3.42,1.51-3.42,1.51H29.19C29.19,115.44,25.56,91.44,25.56,71.43z"/>
				</g>
				<g>
					<path class="st2" d="M108.83,82.8c0,0,7.46-0.83,9.95-0.64c2.49,0.2,4.55,0.89,6.54,2.48c1.99,1.59,4.05,3.17,2.77,3.56
						c-1.28,0.38-2.06-0.06-3.41-1.14c-1.35-1.08-3.49-0.76-4.34,0.13c-0.86,0.89-4.27,0.89-6.33,0.83
						c-2.06-0.06-3.2-1.14-4.97-0.19C107.27,88.77,108.83,82.8,108.83,82.8z"/>
					<path class="st2" d="M125.7,87.63c0,0-0.69,0.86-1.71,0.62c-1.01-0.24-2.5-1.83-3.41-1.62c-0.91,0.21-0.32-0.52-0.32-0.52
						s2.83-0.02,2.93-0.02C123.3,86.08,125.77,86.75,125.7,87.63z"/>
					<path class="st2" d="M122.76,87.44c0,0-0.14,0.69-0.99,0.74c-0.86,0.05-1.23-1-1.95-0.91c-0.72,0.1-0.77-0.38-0.77-0.38
						l1.68-0.57C120.74,86.32,122.15,86.91,122.76,87.44z"/>
				</g>
				<path class="st8" d="M50.88,165.33H51c14.49,0,19.25,2.54,19.25,2.98c0,0.44-1.28,0.57-2.85,0.57H34.48
					c-1.57,0-2.85-0.13-2.85-0.57C31.63,167.87,36.39,165.33,50.88,165.33z"/>
				<path class="st8" d="M50.99,126.49h-0.1c-11.69,0-15.53-2.54-15.53-2.98c0-0.45,1.03-0.57,2.3-0.57h26.56
					c1.26,0,2.3,0.13,2.3,0.57C66.52,123.96,62.69,126.49,50.99,126.49z"/>
				<path d="M17.46,104.4c0-9.34-0.85-19.37-0.85-23.31c0-3.94,0.14-10.16,7.95-10.16c7.82,0,21.46-0.25,27,14.86
					c5.54,15.12,9.66,33.79,17.9,33.79c8.24,0,14.78,0,17.27,0c2.49,0,3.76,1.4,3.76,2.73c0,1.33-1.13,2.67-4.41,2.67
					c-3.27,0-34.53,0-44.76,0C31.1,124.97,17.46,123.38,17.46,104.4z"/>
				<path class="st18" d="M83.75,121.86H68.78c-10.16,0-14.66-18.67-20.2-33.78c-5.54-15.12-19.18-14.86-27-14.86
					c-1.39,0-2.53,0.2-3.48,0.55c1.12-1.66,3.07-2.84,6.47-2.84c7.82,0,21.46-0.25,27,14.86c5.54,15.12,9.66,33.79,17.9,33.79h17.27
					c2.49,0,3.76,1.4,3.76,2.73C89.48,121.73,89.88,121.86,83.75,121.86z"/>
				<g>
					<rect x="85.22" y="36.15" class="st19" width="63.21" height="36.15"/>
					<rect x="85.22" y="36.15" class="st20" width="63.21" height="4.47"/>
					<rect x="86.41" y="37.11" class="st21" width="3.01" height="2.68"/>
					<rect x="95.33" y="37.11" class="st21" width="38.4" height="2.68"/>
					<polygon points="88.27,39.14 87.3,38.44 88.27,37.73 					"/>
					<g>
						<rect x="90.7" y="37.11" class="st21" width="3.01" height="2.68"/>
						<polygon points="91.85,39.14 92.82,38.44 91.85,37.73 						"/>
					</g>
					<g>
						<path class="st22" d="M138.74,38.41c0,0.64-0.58,1.15-1.29,1.15c-0.72,0-1.3-0.52-1.3-1.15c0-0.64,0.58-1.16,1.3-1.16
							C138.16,37.26,138.74,37.77,138.74,38.41z"/>
						<path class="st23" d="M142.77,38.41c0,0.64-0.58,1.15-1.29,1.15c-0.72,0-1.29-0.52-1.29-1.15c0-0.64,0.58-1.16,1.29-1.16
							C142.19,37.26,142.77,37.77,142.77,38.41z"/>
						<path class="st24" d="M146.8,38.41c0,0.64-0.57,1.15-1.29,1.15c-0.71,0-1.3-0.52-1.3-1.15c0-0.64,0.58-1.16,1.3-1.16
							C146.22,37.26,146.8,37.77,146.8,38.41z"/>
					</g>
					<g>
						<rect x="91.94" y="42.72" class="st25" width="0.71" height="27.42"/>
						<rect x="89.08" y="43.57" class="st25" width="1.19" height="1.06"/>
						<rect x="89.08" y="45.89" class="st25" width="1.19" height="1.06"/>
						<rect x="89.08" y="48.22" class="st25" width="1.19" height="1.06"/>
						<rect x="89.08" y="50.54" class="st25" width="1.19" height="1.06"/>
						<rect x="89.08" y="52.86" class="st25" width="1.19" height="1.06"/>
						<rect x="89.08" y="55.18" class="st25" width="1.19" height="1.06"/>
						<rect x="89.08" y="57.5" class="st25" width="1.19" height="1.06"/>
						<rect x="89.08" y="59.82" class="st25" width="1.19" height="1.06"/>
						<rect x="89.08" y="62.14" class="st25" width="1.19" height="1.06"/>
						<rect x="89.08" y="64.46" class="st25" width="1.19" height="1.06"/>
						<rect x="89.08" y="66.79" class="st25" width="1.19" height="1.06"/>
					</g>
					<g>
						<g>
							<path class="st21" d="M95.54,43.29l-0.86,0.82c-0.06,0.06-0.06,0.14,0,0.2l0.83,0.76c0.07,0.06,0.17,0.06,0.23,0.01
								c0.04-0.03,0.05-0.07,0.05-0.11c0-0.04-0.02-0.08-0.05-0.1c0,0-0.56-0.51-0.72-0.67c0.17-0.16,0.76-0.72,0.76-0.72
								c0.03-0.03,0.05-0.07,0.05-0.1c0-0.04-0.02-0.08-0.06-0.11C95.71,43.22,95.6,43.22,95.54,43.29z"/>
						</g>
						<g>
							<path class="st21" d="M99.61,43.28c-0.04,0.03-0.05,0.07-0.05,0.11c0,0.03,0.02,0.07,0.04,0.1c0,0,0.59,0.56,0.76,0.72
								c-0.17,0.15-0.72,0.67-0.72,0.67c-0.03,0.03-0.04,0.07-0.04,0.1c0,0.04,0.01,0.08,0.05,0.11c0.07,0.05,0.17,0.05,0.24-0.01
								l0.83-0.76c0.06-0.06,0.06-0.15,0-0.2l-0.86-0.82C99.78,43.22,99.67,43.22,99.61,43.28z"/>
						</g>
						<g>
							<path class="st21" d="M98.27,43.36l-1.6,1.46c-0.07,0.06-0.07,0.15,0,0.21c0.06,0.06,0.17,0.05,0.23,0l1.6-1.46
								c0.07-0.06,0.07-0.16,0-0.21C98.44,43.3,98.33,43.3,98.27,43.36z"/>
						</g>
					</g>
					<g>
						<g>
							<path class="st21" d="M95.54,68.41l-0.86,0.82c-0.06,0.06-0.06,0.15,0,0.2l0.83,0.77c0.07,0.06,0.17,0.06,0.23,0
								c0.04-0.03,0.05-0.07,0.05-0.11c0-0.04-0.02-0.08-0.05-0.11c0,0-0.56-0.51-0.72-0.67c0.17-0.16,0.76-0.72,0.76-0.72
								c0.03-0.03,0.05-0.07,0.05-0.1c0-0.04-0.02-0.08-0.06-0.11C95.71,68.35,95.6,68.35,95.54,68.41z"/>
						</g>
						<g>
							<path class="st21" d="M99.61,68.4c-0.04,0.03-0.05,0.07-0.05,0.11c0,0.03,0.02,0.07,0.04,0.1c0,0,0.59,0.56,0.76,0.72
								c-0.17,0.15-0.72,0.67-0.72,0.67c-0.03,0.03-0.04,0.06-0.04,0.11c0,0.04,0.01,0.07,0.05,0.11c0.07,0.06,0.17,0.06,0.24,0
								l0.83-0.77c0.06-0.06,0.06-0.15,0-0.2l-0.86-0.82C99.78,68.35,99.67,68.35,99.61,68.4z"/>
						</g>
						<g>
							<path class="st21" d="M98.27,68.48l-1.6,1.46c-0.07,0.06-0.07,0.15,0,0.21c0.06,0.06,0.17,0.06,0.23,0l1.6-1.46
								c0.07-0.06,0.07-0.15,0-0.21C98.44,68.42,98.33,68.42,98.27,68.48z"/>
						</g>
					</g>
					<rect x="93.4" y="45.72" class="st26" width="5.4" height="0.95"/>
					<rect x="93.4" y="58.4" class="st27" width="6.07" height="0.96"/>
					<rect x="93.4" y="66.88" class="st27" width="4.13" height="0.95"/>
					<rect x="94.74" y="47.84" class="st28" width="8.63" height="0.96"/>
					<rect x="94.74" y="60.56" class="st29" width="7.9" height="0.96"/>
					<rect x="94.74" y="62.6" class="st30" width="7.75" height="0.95"/>
					<rect x="94.74" y="64.72" class="st28" width="4.15" height="0.95"/>
					<rect x="99.88" y="64.72" class="st29" width="17.67" height="0.95"/>
					<rect x="103.39" y="62.6" class="st29" width="12.85" height="0.95"/>
					<rect x="117.23" y="62.6" class="st26" width="4.15" height="0.95"/>
					<rect x="123.24" y="60.56" class="st30" width="8.25" height="0.96"/>
					<rect x="103.48" y="60.56" class="st28" width="18.73" height="0.96"/>
					<rect x="104.26" y="47.84" class="st29" width="4.95" height="0.96"/>
					<rect x="94.74" y="52.13" class="st29" width="5.7" height="0.95"/>
					<rect x="101.37" y="52.13" class="st28" width="9.26" height="0.95"/>
					<rect x="110.1" y="47.84" class="st30" width="8.86" height="0.96"/>
					<rect x="94.74" y="50.01" class="st30" width="9.83" height="0.95"/>
					<rect x="105.59" y="50.01" class="st26" width="9.61" height="0.95"/>
					<rect x="116.15" y="50.01" class="st28" width="6.72" height="0.95"/>
					<rect x="94.74" y="54.25" class="st30" width="11.65" height="0.96"/>
					<rect x="107.28" y="54.25" class="st29" width="6.22" height="0.96"/>
					<rect x="94.74" y="56.27" class="st28" width="11.65" height="0.95"/>
					<rect x="107.28" y="56.27" class="st30" width="10.81" height="0.95"/>
					<rect x="114.53" y="54.25" class="st28" width="12.06" height="0.96"/>
					<rect x="99.84" y="45.72" class="st28" width="2.79" height="0.95"/>
				</g>
				<g>
					<g>
						<path class="st31" d="M165.2,88.02c0,0.99-0.9,1.8-2.01,1.8h-7.7c-1.1,0-2.01-0.81-2.01-1.8v-8.98h11.72V88.02z"/>
					</g>
					<path class="st32" d="M168.52,80.59c-0.8-0.59-1.91-0.87-3.32-0.85v1.5c0.93-0.02,1.65,0.13,2.09,0.46
						c0.51,0.37,0.72,1.02,0.64,1.93c-0.09,1.01-0.7,2.33-1.7,2.88c-0.33,0.18-0.67,0.25-1.03,0.24v1.27c0,0.07-0.01,0.14-0.02,0.21
						c0.74,0.02,1.45-0.14,2.09-0.49c1.56-0.86,2.38-2.64,2.5-4.01C169.88,82.34,169.46,81.29,168.52,80.59z"/>
					<path class="st33" d="M165.2,79.74v1.5c0.21,0,0.4,0.01,0.58,0.02v-1.49C165.59,79.75,165.4,79.73,165.2,79.74z M165.2,88.02
						c0,0.07-0.01,0.14-0.02,0.21c0.2,0.01,0.39,0,0.59-0.02c0.01-0.07,0.02-0.12,0.02-0.19v-1.34c-0.19,0.05-0.38,0.07-0.58,0.06
						V88.02z"/>
					<path class="st34" d="M155.08,89.78c0.13,0.03,0.27,0.04,0.41,0.04h1.77V79.04h-2.18V89.78z"/>
				</g>
			</g>
			<g class="st35">
				<path class="st36" d="M184.72,180.72c0,1.48-17.59,2.67-39.29,2.67c-21.7,0-39.29-1.2-39.29-2.67s17.59-2.67,39.29-2.67
					C167.13,178.05,184.72,179.25,184.72,180.72z"/>
				<g class="st37">
					<polygon class="st2" points="140.71,177.07 140.2,179.5 137.7,179.5 138.24,176.94 					"/>
					<path class="st3" d="M140.44,178.69c0,0,0.58,0.35,0.58,1.22c0,0.87,0,1.76,0,1.76h-8.76c0,0-0.16-1.04,1.04-1.04
						c1.2,0,3.31-0.83,3.71-1.24c0.51-0.51,0.87-0.71,1.25-0.71C138.65,178.69,140.44,178.69,140.44,178.69z"/>
				</g>
				<g class="st37">
					<polygon class="st2" points="158.28,177.07 157.76,179.5 155.27,179.5 155.81,176.94 					"/>
					<path class="st3" d="M158.01,178.69c0,0,0.58,0.35,0.58,1.22c0,0.87,0,1.76,0,1.76h-8.76c0,0-0.16-1.04,1.04-1.04
						c1.2,0,3.31-0.83,3.71-1.24c0.5-0.51,0.87-0.71,1.25-0.71C156.21,178.69,158.01,178.69,158.01,178.69z"/>
				</g>
				<g class="st37">
					<g>
						<polygon class="st10" points="131.59,140.21 130.87,144.26 134.87,144.26 134.87,140.27 						"/>
						<polygon class="st11" points="130.95,140.21 131.59,140.22 130.87,144.26 130.23,144.26 						"/>
						<g>
							<path class="st38" d="M118.28,139.81c0,0.37,0.3,0.67,0.67,0.67h30.06c0.37,0,0.67-0.3,0.67-0.67v-19.77
								c0-0.37-0.3-0.67-0.67-0.67h-30.06c-0.37,0-0.67,0.3-0.67,0.67V139.81z"/>
							<rect x="119.58" y="120.46" class="st39" width="28.81" height="18.95"/>
						</g>
						<path class="st15" d="M118.84,119.38h0.11c-0.37,0-0.67,0.3-0.67,0.67v19.77c0,0.37,0.3,0.67,0.67,0.67h-0.22
							c-0.74,0-0.96-0.69-0.96-1.53v-18.3C117.76,119.97,118.19,119.38,118.84,119.38z"/>
					</g>
					<g>
						<rect x="120.07" y="120.87" class="st40" width="27.76" height="17.76"/>
						<rect x="120.07" y="120.87" class="st41" width="27.76" height="2.2"/>
						<path class="st22" d="M122.2,121.98c0,0.31-0.25,0.57-0.57,0.57c-0.31,0-0.57-0.25-0.57-0.57c0-0.31,0.25-0.57,0.57-0.57
							C121.94,121.42,122.2,121.67,122.2,121.98z"/>
						<path class="st23" d="M123.97,121.98c0,0.31-0.25,0.57-0.57,0.57c-0.32,0-0.57-0.25-0.57-0.57c0-0.31,0.25-0.57,0.57-0.57
							C123.71,121.42,123.97,121.67,123.97,121.98z"/>
						<path class="st42" d="M125.74,121.98c0,0.31-0.25,0.57-0.57,0.57c-0.31,0-0.57-0.25-0.57-0.57c0-0.31,0.25-0.57,0.57-0.57
							C125.48,121.42,125.74,121.67,125.74,121.98z"/>
						<rect x="121.86" y="125.57" class="st26" width="2.37" height="0.47"/>
						<rect x="121.86" y="131.8" class="st27" width="2.67" height="0.47"/>
						<rect x="121.86" y="134.78" class="st27" width="1.82" height="0.47"/>
						<rect x="122.45" y="126.61" class="st43" width="3.79" height="0.47"/>
						<rect x="122.45" y="132.86" class="st44" width="3.47" height="0.47"/>
						<rect x="122.45" y="133.87" class="st21" width="3.4" height="0.47"/>
						<rect x="126.25" y="133.87" class="st44" width="5.64" height="0.47"/>
						<rect x="132.33" y="133.87" class="st45" width="1.82" height="0.47"/>
						<rect x="134.96" y="132.86" class="st21" width="3.63" height="0.47"/>
						<rect x="126.29" y="132.86" class="st43" width="8.22" height="0.47"/>
						<rect x="126.63" y="126.61" class="st44" width="2.18" height="0.47"/>
						<rect x="122.45" y="128.72" class="st44" width="2.5" height="0.47"/>
						<rect x="125.36" y="128.72" class="st43" width="4.07" height="0.47"/>
						<rect x="129.19" y="126.61" class="st21" width="3.89" height="0.47"/>
						<rect x="122.45" y="127.68" class="st46" width="4.32" height="0.47"/>
						<rect x="127.21" y="127.68" class="st26" width="4.22" height="0.47"/>
						<rect x="131.85" y="127.68" class="st43" width="2.95" height="0.47"/>
						<rect x="122.45" y="129.76" class="st46" width="5.12" height="0.47"/>
						<rect x="127.96" y="129.76" class="st44" width="2.73" height="0.47"/>
						<rect x="122.45" y="130.75" class="st43" width="5.12" height="0.47"/>
						<rect x="127.96" y="130.75" class="st21" width="4.74" height="0.47"/>
						<rect x="131.14" y="129.76" class="st43" width="5.3" height="0.47"/>
						<rect x="124.69" y="125.57" class="st44" width="1.23" height="0.47"/>
					</g>
				</g>
				<rect x="106.21" y="144.18" class="st47" width="77.06" height="2.05"/>
				<g class="st37">
					<g>
						<g>
							<rect x="109.18" y="146.23" class="st10" width="1.83" height="33.91"/>
						</g>
						<g>
							<rect x="108.54" y="146.23" class="st11" width="0.64" height="33.91"/>
						</g>
					</g>
				</g>
				<g class="st37">
					<g>
						<g>
							<rect x="122.38" y="146.23" class="st10" width="1.83" height="33.91"/>
						</g>
						<g>
							<rect x="121.74" y="146.23" class="st11" width="0.64" height="33.91"/>
						</g>
					</g>
				</g>
				<g class="st37">
					<g>
						<g>
							<rect x="178.82" y="146.23" class="st10" width="1.83" height="33.91"/>
						</g>
						<g>
							<rect x="178.18" y="146.23" class="st11" width="0.64" height="33.91"/>
						</g>
					</g>
				</g>
				<g class="st37">
					<g>
						<g>
							<rect x="167.53" y="146.23" class="st10" width="1.83" height="33.91"/>
						</g>
						<g>
							<rect x="166.89" y="146.23" class="st11" width="0.63" height="33.91"/>
						</g>
					</g>
				</g>
				<g class="st37">
					<path class="st12" d="M150.98,151.43c0,0-9.61,2.81-10.77,3.97c-1.16,1.16-1.87,17.13-2.21,22.4h2.72l4.03-15.82l8.56-2.04
						L150.98,151.43z"/>
				</g>
				<g class="st37">
					<path class="st12" d="M168.71,151.43c0,0-9.82,2.87-11.01,4.06c-1.19,1.19-1.91,17.5-2.26,22.89h2.78l4.11-16.17l8.75-2.09
						L168.71,151.43z"/>
				</g>
				<path class="st48" d="M154.03,116.44c0,0-0.05,2.15-0.05,2.44c0,0.29-0.56,1.27-0.82,1.51c-0.26,0.24,0.05,0.71,0.4,0.74
					c0.34,0.03,0.29,0.48,0.29,0.9c0,0.9-0.05,3.74,2.86,1.96c0,0,0.26,0.66,0.11,1.27h4.85c0,0-0.5-1.01-0.42-2.07
					C161.32,122.14,157.65,115.24,154.03,116.44z"/>
				<path class="st49" d="M153.45,114.32c2.03-1.06,6.89-2.12,8.08,1.01c0,0,1.67,0.78,1.48,3.11c-0.13,1.64-0.56,5.03-2.78,5.03
					s-3.12-0.89-3.12-0.89s1.61-2.17,0.55-3c-0.33-0.26-0.67-0.04-0.69,0.54c-0.02,0.58,0.05,3.23-0.29,3.97
					c-0.52,1.13-1.51,0.97-1.91,0.85c-1.23-0.34-1.2-3.09-0.92-2.27c0.28,0.82,1.29,0.8,1.79,0.29c0.5-0.5,0.94-3.44,0.94-3.44
					c-0.02-1.41-0.42-3.37-2.56-3.08c0,0-0.56,0.19-1.27,0.24C152.04,116.73,151.61,115.29,153.45,114.32z"/>
				<g class="st37">
					<path class="st50" d="M147.91,159c0,0.7,0.57,1.27,1.27,1.27h22.33c0.7,0,1.27-0.57,1.27-1.27v-0.16c0-0.7-0.57-1.27-1.27-1.27
						h-22.33c-0.7,0-1.27,0.57-1.27,1.27V159z"/>
				</g>
				<g class="st37">
					<path class="st8" d="M157.91,160.52c0,0.33,0.27,0.6,0.6,0.6h4.37c0.33,0,0.6-0.27,0.6-0.6v-2.09c0-0.33-0.27-0.6-0.6-0.6
						h-4.37c-0.33,0-0.6,0.27-0.6,0.6V160.52z"/>
				</g>
				<path class="st51" d="M157.99,157.83h0.52c-0.33,0-0.6,0.27-0.6,0.6v2.09c0,0.33,0.27,0.6,0.6,0.6h-0.52
					c-0.33,0-0.6-0.27-0.6-0.6v-2.09C157.39,158.1,157.66,157.83,157.99,157.83z"/>
				<rect x="160.18" y="160.75" class="st52" width="1.18" height="13.54"/>
				<path class="st53" d="M158.64,158.7c0,0.25,0.21,0.46,0.46,0.46c0.25,0,0.46-0.21,0.46-0.46c0-0.25-0.21-0.46-0.46-0.46
					C158.84,158.24,158.64,158.45,158.64,158.7z"/>
				<path class="st53" d="M161.78,158.7c0,0.25,0.21,0.46,0.46,0.46c0.25,0,0.46-0.21,0.46-0.46c0-0.25-0.21-0.46-0.46-0.46
					C161.98,158.24,161.78,158.45,161.78,158.7z"/>
				<g class="st37">
					<g>
						<path class="st8" d="M147.48,157.46c0,0.35,0.29,0.64,0.64,0.64h0.08c0.35,0,0.64-0.29,0.64-0.64v-5.62
							c0-0.35-0.29-0.19-0.64-0.19h-0.08c-0.35,0-0.64-0.16-0.64,0.19V157.46z"/>
					</g>
					<g>
						<path class="st50" d="M146.64,151.31c0,0.35,0.29,0.64,0.64,0.64h1.75c0.35,0,0.64-0.29,0.64-0.64v-5.56
							c0-0.35-0.29-0.64-0.64-0.64h-1.75c-0.35,0-0.64,0.29-0.64,0.64V151.31z"/>
					</g>
					<path class="st54" d="M146.25,145.11h1.02c-0.35,0-0.64,0.29-0.64,0.64v5.56c0,0.35,0.29,0.64,0.64,0.64h-1.02
						c-0.35,0-0.64-0.29-0.64-0.64v-5.56C145.62,145.4,145.9,145.11,146.25,145.11z"/>
				</g>
				<g class="st37">
					<g>
						<path class="st8" d="M172.34,157.46c0,0.35,0.29,0.64,0.64,0.64h0.08c0.35,0,0.64-0.29,0.64-0.64v-5.62
							c0-0.35-0.29-0.19-0.64-0.19h-0.08c-0.35,0-0.64-0.16-0.64,0.19V157.46z"/>
					</g>
					<g>
						<g>
							<path class="st50" d="M171.49,151.31c0,0.35,0.29,0.64,0.64,0.64h1.75c0.35,0,0.64-0.29,0.64-0.64v-5.56
								c0-0.35-0.29-0.64-0.64-0.64h-1.75c-0.35,0-0.64,0.29-0.64,0.64V151.31z"/>
						</g>
						<path class="st54" d="M171.11,145.11h1.02c-0.35,0-0.64,0.29-0.64,0.64v5.56c0,0.35,0.29,0.64,0.64,0.64h-1.02
							c-0.35,0-0.64-0.29-0.64-0.64v-5.56C170.47,145.4,170.76,145.11,171.11,145.11z"/>
					</g>
				</g>
				<g class="st37">
					<path class="st54" d="M148.46,156.89c0,0.52,0.43,0.95,0.95,0.95h21.97c0.52,0,0.95-0.43,0.95-0.95v-1.72
						c0-0.52-0.43-0.95-0.95-0.95h-21.97c-0.52,0-0.95,0.43-0.95,0.95V156.89z"/>
				</g>
				<g class="st37">
					<path class="st8" d="M151.19,177.87l8.6-2.89v-0.66c0-0.17,0.14-0.32,0.32-0.32h1.31c0.18,0,0.32,0.14,0.32,0.32v0.67
						l8.57,2.88v0.58l-8.57-0.49v0.09c0,0.18-0.14,0.32-0.32,0.32h-1.31c-0.17,0-0.32-0.14-0.32-0.32v-0.09l-8.6,0.49V177.87z"/>
					<g>
						<rect x="151.6" y="178.21" class="st8" width="0.5" height="2.24"/>
						<path class="st55" d="M151.23,180.97c0,0.6,0.49,1.09,1.09,1.09c0.6,0,1.09-0.49,1.09-1.09c0-0.6-0.49-1.09-1.09-1.09
							C151.72,179.88,151.23,180.37,151.23,180.97z"/>
						<path class="st56" d="M151.43,180.97c0,0.49,0.4,0.89,0.89,0.89c0.49,0,0.89-0.4,0.89-0.89c0-0.49-0.4-0.89-0.89-0.89
							C151.83,180.08,151.43,180.48,151.43,180.97z"/>
					</g>
					<g>
						<rect x="155.85" y="178.03" class="st8" width="0.5" height="2.42"/>
						<path class="st55" d="M155.48,180.97c0,0.6,0.49,1.09,1.09,1.09c0.6,0,1.09-0.49,1.09-1.09c0-0.6-0.49-1.09-1.09-1.09
							C155.97,179.88,155.48,180.37,155.48,180.97z"/>
						<path class="st56" d="M155.68,180.97c0,0.49,0.4,0.89,0.89,0.89c0.49,0,0.89-0.4,0.89-0.89c0-0.49-0.4-0.89-0.89-0.89
							C156.08,180.08,155.68,180.48,155.68,180.97z"/>
					</g>
					<g>
						<rect x="165.22" y="178.03" class="st8" width="0.5" height="2.42"/>
						<path class="st55" d="M166.08,180.97c0,0.6-0.49,1.09-1.09,1.09c-0.6,0-1.09-0.49-1.09-1.09c0-0.6,0.49-1.09,1.09-1.09
							C165.59,179.88,166.08,180.37,166.08,180.97z"/>
						<path class="st56" d="M165.88,180.97c0,0.49-0.4,0.89-0.89,0.89c-0.49,0-0.89-0.4-0.89-0.89c0-0.49,0.4-0.89,0.89-0.89
							C165.48,180.08,165.88,180.48,165.88,180.97z"/>
					</g>
					<g>
						<rect x="169.44" y="178.03" class="st8" width="0.5" height="2.42"/>
						<path class="st55" d="M170.31,180.97c0,0.6-0.49,1.09-1.09,1.09c-0.6,0-1.09-0.49-1.09-1.09c0-0.6,0.49-1.09,1.09-1.09
							C169.82,179.88,170.31,180.37,170.31,180.97z"/>
						<path class="st56" d="M170.11,180.97c0,0.49-0.4,0.89-0.89,0.89s-0.89-0.4-0.89-0.89c0-0.49,0.4-0.89,0.89-0.89
							S170.11,180.48,170.11,180.97z"/>
					</g>
				</g>
				<path class="st48" d="M138.44,142.79c0,0-2.85,0.03-2.85,1.43l2.19-0.01L138.44,142.79z"/>
				<path class="st57" d="M161.66,125.26c0,0-4.61,0-5.06,0c-0.45,0-0.58,1.01-0.58,1.51s-2.09,0.5-3.34,0.95
					c-1.25,0.45-2.31,0.53-3.21,2.81c-0.9,2.28-2.32,8.47-4.47,9.86c-2.15,1.39-5.98,1.57-6.6,2.19c-0.62,0.62-0.64,1.11-0.64,1.63
					h9.98c0,0,2.12-0.32,3.97-4.35c1.85-4.03,18.34,2.76,18.34,2.76s1.3,1.64,2.97,1.64c1.67,0,2.46-2.17,1.48-5.27
					c-0.98-3.1-2.65-7.58-3.31-8.24c-0.66-0.66-3.82-2.27-4.85-2.7c-1.03-0.44-2.92-0.95-3.22-1.44
					C162.83,126.11,162.44,125.26,161.66,125.26z"/>
				<g class="st37">
					<g>
						<path class="st50" d="M150.69,157.57h20.27v-22.9c0-2.1-1.72-3.82-3.82-3.82h-12.64c-2.1,0-3.82,1.72-3.82,3.82V157.57z"/>
					</g>
				</g>
				<path class="st58" d="M153.45,130.86h1.06c-2.1,0-3.82,1.72-3.82,3.82v22.9h-1.06v-22.9
					C149.63,132.57,151.35,130.86,153.45,130.86z"/>
				<g class="st37">
					<g>
						<path class="st31" d="M119.92,143.28c0,0.5-0.41,0.9-0.9,0.9h-3.46c-0.5,0-0.9-0.41-0.9-0.9v-4.52h5.27V143.28z"/>
					</g>
					<path class="st32" d="M121.41,139.54c-0.36-0.3-0.86-0.44-1.49-0.43v0.76c0.42-0.01,0.74,0.07,0.94,0.23
						c0.23,0.19,0.32,0.51,0.29,0.97c-0.04,0.51-0.32,1.17-0.76,1.45c-0.15,0.09-0.3,0.13-0.46,0.12v0.64
						c0,0.04-0.01,0.07-0.01,0.11c0.33,0.01,0.65-0.07,0.94-0.25c0.7-0.43,1.07-1.33,1.12-2.02
						C122.03,140.43,121.84,139.89,121.41,139.54z"/>
					<path class="st33" d="M119.92,139.11v0.76c0.09,0,0.18,0,0.26,0.01v-0.75C120.1,139.12,120.01,139.11,119.92,139.11z
						 M119.92,143.28c0,0.04-0.01,0.07-0.01,0.11c0.09,0,0.18,0,0.26-0.01c0-0.03,0.01-0.06,0.01-0.1v-0.67
						c-0.08,0.02-0.17,0.04-0.26,0.03V143.28z"/>
					<path class="st34" d="M115.37,144.17c0.06,0.01,0.12,0.02,0.18,0.02h0.8v-5.42h-0.98V144.17z"/>
				</g>
			</g>
			<g class="st35">
				<path class="st36" d="M15.28,180.57c0,0.86,17.41,1.55,38.88,1.55c21.47,0,38.88-0.69,38.88-1.55c0-0.86-17.41-1.55-38.88-1.55
					C32.69,179.02,15.28,179.71,15.28,180.57z"/>
				<g class="st37">
					<path class="st2" d="M53.74,173.59l0.48,1.02l-0.28,0.83c0,0-1.41,0.12-1.42-0.08c-0.02-0.2-0.35-1.15-0.35-1.15
						S53.32,173.43,53.74,173.59z"/>
					<g>
						<path d="M53.98,174.17c0,0,0.07,1.08-0.82,1.02c-0.89-0.06-1.28-0.73-1.47,0.15c-0.19,0.88-0.39,2.1-1.85,2.33
							c-1.47,0.23-0.66,1.7,0.71,1.5c1.38-0.2,2.97-1.54,3.4-1.83c0.43-0.28,1.5-0.35,1.21-1.19
							C54.87,175.33,54.22,174.08,53.98,174.17z"/>
						<path class="st14" d="M50.44,178.84c1.37-0.2,2.97-1.55,3.39-1.83c0.41-0.27,1.43-0.34,1.23-1.11
							c0.04,0.09,0.07,0.18,0.1,0.26c0.3,0.84-0.78,0.91-1.21,1.19c-0.42,0.28-2.02,1.63-3.4,1.83c-0.84,0.12-1.47-0.39-1.49-0.85
							C49.29,178.66,49.8,178.93,50.44,178.84z"/>
					</g>
				</g>
				<g class="st37">
					<path class="st2" d="M57.12,176.44l0.1,1.12l-0.55,0.68c0,0-1.36-0.36-1.31-0.56c0.05-0.19,0.06-1.2,0.06-1.2
						S56.78,176.14,57.12,176.44z"/>
					<g>
						<path d="M57.15,177.06c0,0-0.31,1.04-1.12,0.68c-0.81-0.36-0.95-1.12-1.43-0.36c-0.48,0.76-1.08,1.84-2.54,1.56
							c-1.46-0.29-1.2,1.37,0.15,1.66c1.36,0.29,3.32-0.43,3.82-0.55c0.5-0.12,1.53,0.19,1.54-0.7
							C57.58,178.45,57.4,177.06,57.15,177.06z"/>
						<path class="st14" d="M52.22,180.23c1.36,0.29,3.32-0.43,3.82-0.55c0.48-0.11,1.46,0.17,1.53-0.62c0,0.1,0,0.19,0,0.28
							c-0.01,0.89-1.05,0.58-1.54,0.7c-0.5,0.12-2.46,0.84-3.82,0.55c-0.84-0.18-1.25-0.87-1.11-1.31
							C51.2,179.67,51.59,180.1,52.22,180.23z"/>
					</g>
				</g>
				<g class="st37">
					<path class="st14" d="M81.64,152.41c0.03,0.19,0.76,4.69-2.75,6.97c-0.38,0.25-0.88,0.14-1.13-0.24
						c-0.25-0.38-0.14-0.88,0.24-1.13c2.6-1.69,2.06-5.18,2.03-5.33c-0.07-0.44,0.23-0.86,0.67-0.94
						C81.15,151.66,81.57,151.96,81.64,152.41z"/>
				</g>
				<rect x="40.4" y="142.66" class="st59" width="18.32" height="1.51"/>
				<polygon class="st59" points="58.12,142.79 58.12,144.17 65.37,144.17 65.37,143.61 				"/>
				<g class="st37">
					<path class="st60" d="M76.82,151.56c-0.06,0.54,0.33,1.02,0.87,1.08l4.13,0.46c0.54,0.06,1.02-0.33,1.08-0.87l2.56-23.11
						c0.06-0.54-0.33-1.02-0.87-1.08l-5.34,0.03c-0.54-0.06-1.02,0.33-1.08,0.87L76.82,151.56z"/>
				</g>
				<path class="st61" d="M76.82,151.56l1.36-22.63c0.06-0.54,0.55-0.92,1.08-0.87l3.9-0.02c0.52,0.07,0.89,0.55,0.83,1.07
					l-2.56,23.11c-0.04,0.34-0.25,0.62-0.53,0.76l-3.22-0.36C77.15,152.59,76.76,152.1,76.82,151.56z"/>
				<path class="st62" d="M61.6,133.77c0,0-1.42,4.78-3.95,5.43c-2.53,0.65-4.32,1.79-5.67,1.79c-1.35,0-2.88-0.33-3.41-0.33
					c-0.53,0-2.86,1.1-2.96,1.73c0,0.26,0.61,0.26,0.61,0.26h6.55c0,0,3.92-0.48,5.69-0.77c0.9-0.15,3.47-0.82,5.96-6.34l-0.01-0.74
					C64.43,134.82,62.18,133.19,61.6,133.77z"/>
				<path class="st63" d="M61.53,148.03c0,0-9.68,1.09-12.7,3.18c-3.02,2.09,0.3,13.95,1.17,16.45c0.87,2.5,1.85,6.69,1.85,6.69
					s2.18,0.11,2.61-0.38c0.22-0.92-1.52-16.15-1.03-16.64c0.49-0.49,8.16-4.4,8.16-4.4l4.79-3.92L61.53,148.03z"/>
				<path class="st49" d="M63.54,149.19c0,0-6.25,1.94-6.9,5.64c-0.65,3.7-1.96,21.54-1.96,21.54s1.31,0.38,2.61,0.38
					c0,0,5.06-18.17,5.55-19.23c0,0,11.34,1.63,13.46-5.46C78.42,144.96,63.54,149.19,63.54,149.19z"/>
				<rect x="17.69" y="147.1" class="st52" width="2.18" height="33.24"/>
				<rect x="19.11" y="147.1" class="st36" width="0.52" height="33.24"/>
				<rect x="36.19" y="147.1" class="st52" width="2.18" height="33.24"/>
				<rect x="89.05" y="147.1" class="st52" width="2.18" height="33.24"/>
				<path class="st64" d="M69.12,125.02c0,0-4.49,0.12-7.81,8.49c0.98,0.98,3.37,2.17,3.37,2.17s0.6-0.43,1.05-1.05
					c0,0,0.86,3.82,0.86,5.07c0,1.25,0,4.79,0,4.79s-4.57,3.05-5.06,3.54c0,0,6.2,4.35,15.17,4.35c2.12-3.16,5.22-15.34,2.78-23.25
					c-1.14-4-4.26-4.92-6.43-4.53C70.89,125,69.12,125.02,69.12,125.02z"/>
				<path class="st62" d="M73.7,135.78c0,0,0.23,4.53-0.89,4.99c-1.11,0.46-8.39,0.74-9.91,0.58c-1.79-0.18-3.05-0.64-3.9-0.27
					c-0.86,0.37-2.08,2.19-1.71,2.37c0.19,0.09,0.32,0.12,0.48,0.07c0.08-0.02-0.13,0.66,0.21,0.66c0.35,0,0.55-0.2,0.55-0.2
					s0.29,0.19,0.51,0.19c0.22,0,0.39-0.37,0.39-0.37s-0.09,0.37,0.14,0.37c0.23,0,0.55-0.68,0.67-1.25c0.31,0,0.65,0.37,3.28,0.7
					c0.92,0.11,7.22,0.08,9.79,0.08c2.57,0,3.18-0.9,3.47-2.08c0.29-1.18,0.61-6.36,0.61-6.36S74.3,135.18,73.7,135.78z"/>
				<rect x="74.58" y="159.4" class="st59" width="2.2" height="14.68"/>
				<g class="st37">
					<g>
						<path class="st50" d="M80.46,158.66c0,0.54-0.44,0.98-0.98,0.98H63.82c-0.54,0-0.98-0.44-0.98-0.98v-0.16
							c0-0.54,0.44-0.98,0.98-0.98h15.66c0.54,0,0.98,0.44,0.98,0.98V158.66z"/>
					</g>
				</g>
				<g class="st37">
					<path class="st14" d="M74.91,174.08c-0.18,0-0.47,0.01-0.65,0.01l-8.33,0.61c-0.18,0.01-0.33,0.16-0.33,0.34v2.46
						c0,0.18,0.15,0.33,0.33,0.33h0.16c0.18,0,0.33-0.15,0.33-0.33v-0.94c0-0.18,0.15-0.34,0.32-0.35l7.63-0.58
						c0.18-0.01,0.32,0.12,0.32,0.3v1.63c0,0.18,0.15,0.33,0.33,0.33h1.32c0.18,0,0.33-0.15,0.33-0.33v-1.66
						c0-0.18,0.15-0.32,0.32-0.31l7.49,0.45c0.18,0.01,0.32,0.17,0.32,0.35v0.84c0,0.18,0.15,0.33,0.33,0.33h0.16
						c0.18,0,0.33-0.15,0.33-0.33v-2.38c0-0.18-0.15-0.33-0.33-0.34l-8.19-0.41c-0.18-0.01-0.47-0.02-0.65-0.02H74.91z"/>
				</g>
				<path class="st57" d="M76.03,124.92c0,0-2.46,0.22-2.67,4.29c-0.21,4.08-0.29,6.49-0.29,6.49s3.43,0.53,5.1,0
					c0.33-1.35,1.64-7.49-1.02-10.15C76.61,125.14,76.03,124.92,76.03,124.92z"/>
				<rect x="17.69" y="144.17" class="st65" width="78.86" height="2.94"/>
				<rect x="70.67" y="147.1" class="st52" width="2.18" height="33.24"/>
				<path class="st57" d="M68.78,125.06L68.78,125.06c-2.16,1.86-2.68,3.94-2.68,3.94c-0.98,2.86-0.37,5.63-0.37,5.63
					c-0.45,0.61-1.05,1.05-1.05,1.05s-2.39-1.2-3.37-2.17C64.08,126.52,67.67,125.28,68.78,125.06z"/>
				<path class="st48" d="M73.85,120.51v4.09c0,0-0.77,1.85-2.7,1.85c-1.93,0-1.93-1.96-1.93-1.96S72.66,120.35,73.85,120.51z"/>
				<g class="st37">
					<path class="st66" d="M65.42,116.43c0,0,0.26,2.77,0.62,4.49c0.35,1.71,1.67,3.67,2.81,3.59c1.14-0.08,4.44-0.9,5.58-4.85
						c0.35-0.16,2.38-1.27,1.76-3.22c-0.62-1.96-2.33,2.12-2.33,2.49c0,0.37-0.22-1.02-0.13-1.71c0.09-0.69,0.09-3.91-1.76-3.87
						c-1.85,0.04-4.62,0.42-6.02,0C64.84,113,65.37,115.82,65.42,116.43z"/>
					<path class="st12" d="M67.83,108.8c1.63-0.9,5.76-0.9,6.24,1.39c0,0,2.33,0.33,2.5,2.32c0.15,1.7-0.02,2.78-0.43,3.82
						c-0.64-1.72-2.3,2.22-2.3,2.58c0,0.37-0.22-1.02-0.13-1.71c0.09-0.69,0.09-3.91-1.76-3.87c-1.85,0.04-4.62,0.42-6.02,0
						c-0.86-0.25-0.72,1.4-0.61,2.43l-0.05-0.02c0,0-0.35-1.06-0.66-2.41C64.32,111.98,65.82,109.92,67.83,108.8z"/>
					<path class="st12" d="M66.22,121.61c0.51,1.5,1.63,2.96,2.62,2.89c0.95-0.07,3.37-0.65,4.82-3.1c0.38-1.33,0.37-2.07-0.28-0.86
						c-0.88,1.65-1.91,2.02-2.33,2.08c-0.16-1.71-1.56-1.9-2-1.92c-0.44-0.02-0.77,0.12-1.25,0.06
						C66.59,120.44,66.28,121.34,66.22,121.61z M66.97,121.61c0.2-0.45,0.82-0.33,1.19-0.29c0.71,0.08,0.88-0.12,1.34-0.04
						c0.46,0.08,0.92,0.82,0.68,1.39c-0.24,0.57-0.99,0.47-1.36,0.28c-0.38-0.18-0.27,0.17-0.79,0.1
						C67.5,123,66.78,122.06,66.97,121.61z"/>
				</g>
				<g class="st37">
					<polygon class="st67" points="29.42,138.25 57.54,138.76 57.02,117.19 28.38,119.83 					"/>
				</g>
				<g class="st37">
					<polygon class="st68" points="57.02,117.19 57.55,118.11 58.09,138.21 57.54,138.76 					"/>
				</g>
				<path class="st69" d="M35.22,143.24h1.61c0.9,0,1.01-1.17,1.01-1.69c0-1.03-0.31-10.55-0.31-10.55
					c-0.01-0.18,0.14-0.33,0.31-0.33l2.12-0.11c0.18,0,0.33,0.15,0.33,0.33c0,0,0.21,9.3,0.21,10.61c0,1.31,0.98,1.74,2.12,1.74
					c1.14,0,2.45,0,2.45,0c0.18,0,0.33,0.15,0.33,0.33v0.27c0,0.18-0.15,0.33-0.33,0.33c0,0-4.41,0-5.93,0h-3.92
					c-0.18,0-0.33-0.15-0.33-0.33v-0.27C34.9,143.39,35.05,143.24,35.22,143.24z"/>
				<g class="st70">
					<path class="st67" d="M41.05,118.66L57,138.73l0.53,0.02l-0.09-3.29l-12.99-17.12L41.05,118.66z M33.36,119.37l15.32,18.99
						l5.86,0.27L39,118.85L33.36,119.37z"/>
				</g>
				<path class="st71" d="M37.98,132.2c0,0.5,0.41,0.91,0.92,0.91c0.5,0,0.91-0.41,0.91-0.91c0-0.51-0.41-0.91-0.91-0.91
					C38.39,131.28,37.98,131.69,37.98,132.2z"/>
				<path class="st69" d="M38.39,132.2c0,0.28,0.23,0.51,0.51,0.51c0.28,0,0.51-0.23,0.51-0.51c0-0.28-0.23-0.51-0.51-0.51
					C38.61,131.69,38.39,131.92,38.39,132.2z"/>
				<rect x="74.33" y="144.17" class="st72" width="22.25" height="2.94"/>
				<rect x="37.64" y="147.1" class="st36" width="0.52" height="33.24"/>
				<rect x="72.05" y="147.1" class="st36" width="0.52" height="33.24"/>
				<rect x="90.37" y="147.1" class="st36" width="0.52" height="33.24"/>
				<g class="st37">
					<g>
						<path class="st31" d="M29.52,143.35c0,0.49-0.4,0.89-0.89,0.89h-3.41c-0.49,0-0.89-0.4-0.89-0.89v-4.44h5.18V143.35z"/>
					</g>
					<path class="st32" d="M30.99,139.68c-0.35-0.29-0.84-0.43-1.47-0.42V140c0.41-0.01,0.73,0.07,0.92,0.23
						c0.22,0.18,0.32,0.5,0.28,0.95c-0.04,0.5-0.31,1.15-0.75,1.43c-0.14,0.09-0.3,0.13-0.46,0.12v0.63c0,0.04,0,0.07-0.01,0.11
						c0.33,0.01,0.64-0.07,0.92-0.24c0.69-0.43,1.05-1.3,1.1-1.99C31.59,140.54,31.41,140.02,30.99,139.68z"/>
					<path class="st33" d="M29.52,139.25V140c0.09,0,0.18,0,0.26,0.01v-0.74C29.69,139.26,29.61,139.25,29.52,139.25z M29.52,143.35
						c0,0.04,0,0.07-0.01,0.11c0.09,0,0.17,0,0.26-0.01c0-0.03,0.01-0.06,0.01-0.09v-0.66c-0.08,0.02-0.17,0.04-0.26,0.03V143.35z"
						/>
					<path class="st34" d="M25.04,144.22c0.06,0.01,0.12,0.02,0.18,0.02h0.78v-5.33h-0.96V144.22z"/>
				</g>
			</g>
			<g class="st35">
				<g>
					<ellipse class="st73" cx="145.98" cy="90.92" rx="30.93" ry="5.81"/>
					<g class="st37">
						<polygon class="st55" points="149.57,58.39 149.57,88.16 150.84,88.16 150.84,58.48 						"/>
						<path class="st55" d="M171.74,90.36c0,0-0.13,0.2-0.48,0.2c-0.35,0-0.53-0.2-0.53-0.2V70.59h1.01V90.36z"/>
						<path class="st55" d="M168.63,86.58c0,0-0.17,0.21-0.51,0.21c-0.34,0-0.51-0.21-0.51-0.21V70.59h1.01V86.58z"/>
						<path class="st8" d="M161.28,86.42c0,0-0.16,0.25-0.5,0.25c-0.34,0-0.52-0.25-0.52-0.25V70.59h1.01V86.42z"/>
						<rect x="156.22" y="70.59" class="st55" width="1.01" height="19.77"/>
						<path class="st55" d="M117.75,58.39v36.7c0,0,0.16,0.25,0.63,0.25s0.64-0.25,0.64-0.25V58.5L117.75,58.39z"/>
						<path class="st55" d="M125.18,58.39v29.77c0,0,0.19,0.24,0.66,0.24c0.48,0,0.62-0.24,0.62-0.24V58.48L125.18,58.39z"/>
						<linearGradient id="SVGID_1_" gradientUnits="userSpaceOnUse" x1="162.9732" y1="66.5991" x2="164.3039" y2="71.6051">
							<stop  offset="0" style="stop-color:#E8D68C"/>
							<stop  offset="0.0382" style="stop-color:#E8CB76"/>
							<stop  offset="0.0911" style="stop-color:#E8C05E"/>
							<stop  offset="0.1518" style="stop-color:#E8B84C"/>
							<stop  offset="0.2241" style="stop-color:#E8B240"/>
							<stop  offset="0.3194" style="stop-color:#E8AE38"/>
							<stop  offset="0.5281" style="stop-color:#E8AD36"/>
						</linearGradient>
						<path class="st74" d="M172.83,69.7c0,0-3.12,0.73-8.77,0.73c-5.65,0-8.94-0.54-8.94-0.54v1.12c0,0,3.29,0.53,8.94,0.53
							c5.65,0,8.77-0.73,8.77-0.73V69.7z"/>
						<linearGradient id="SVGID_2_" gradientUnits="userSpaceOnUse" x1="162.076" y1="67.762" x2="167.2713" y2="73.3374">
							<stop  offset="0" style="stop-color:#E8D68C"/>
							<stop  offset="1" style="stop-color:#E8CC47"/>
						</linearGradient>
						<path class="st75" d="M172.83,69.7c0,0-0.73-0.55-9.18-0.55c-3.86,0-8.26,0.44-8.52,0.75c0,0,3.29,0.54,8.94,0.54
							C169.71,70.43,172.83,69.7,172.83,69.7z"/>
						<path class="st76" d="M152.92,48.42c-0.57-3.1-0.19-5.32-0.19-6.46c0-1.07,0.14-4.44,0.68-5.39l0,0c0,0-2.58,3.19-3.67,5.39
							c-1.1,2.2-2.87,5.44-3.47,6.04c-0.59,0.6-1.52,2.87-1.52,2.87l5.53,0.93l1.48-0.34c0,0,0.39-0.73,1.25-2.51
							C152.98,48.76,152.95,48.58,152.92,48.42z"/>
						<path class="st76" d="M164.85,31.9c0,0,2.83,1.37,5.78,2.54c2.95,1.17,4.7,4.93,4.11,8.73c-0.59,3.8-1.56,9.59-1.01,12.21
							c0.55,2.62,0.76,4.56,0.51,7.05c0,0-2.3-2.24-5.03-2.75c-2.72-0.51-8.49,0.38-11.28,0.7c-2.79,0.32-3.49,0.32-3.49,0.32
							s-0.95-9.19-1.52-12.29c-0.57-3.1-0.19-5.32-0.19-6.46c0-1.14,0.16-4.91,0.79-5.54c0.63-0.63,2.94-1.51,5.35-2.12
							C161.29,33.67,164.85,31.9,164.85,31.9z"/>
						<path class="st12" d="M159.25,23.67c1.63,0.03,1.42,0.88,1.42,0.88c1.04-0.29,2.44,1.16,2.44,2.64c0,1.48,0.44,2.48,0.44,1.51
							c0-0.96,0.42-2.1,0.42-2.1c0.32-0.83,0.98-1.16,1.36-0.8c0.14-0.22,1.94-3.24-1.23-5.28c0,0-0.39-2.29-3.1-2.1
							c-2.71,0.19-5.45,2.88-7.3,2.49c-1.85-0.4-1.21,2.91,1.29,3.41C155.35,23.51,157.66,23.65,159.25,23.67z"/>
						<path class="st2" d="M164.44,29.69c0.46-0.44,0.87-1.34,0.87-1.34c0.14-0.31,0.25-0.71,0.3-1.23c0.19-1.9-1.14-1.8-1.65-0.51
							c0,0-0.42,1.13-0.42,2.1c0,0.97-0.44-0.03-0.44-1.51c0-1.48-1.4-2.93-2.44-2.64c0,0,0.22-0.85-1.42-0.88
							c-1.63-0.02-4.06-0.18-4.3,0.73c0,0-0.22,4.43,1.03,6.82c1.24,2.39,1.29,3.5,2.96,3.35c0.69-0.06,1.64-0.39,2.36-0.9
							C163.69,31.98,164.42,29.86,164.44,29.69z"/>
						<path class="st77" d="M165.33,25.81c0.14-0.22,1.94-3.24-1.23-5.28c0,0-0.39-2.29-3.1-2.1c-2.71,0.19-5.45,2.88-7.3,2.49
							c-0.3-0.07-0.53-0.02-0.7,0.08c2.38,3.04,8.43-1.46,8.62-0.29c0.19,1.18,1.22,0.6,2.65,2.35c0.77,0.94,0.8,1.91,0.68,2.61
							C165.08,25.66,165.22,25.7,165.33,25.81z"/>
						<path class="st78" d="M159.25,23.67c1.63,0.03,1.42,0.88,1.42,0.88c1.04-0.29,2.44,1.16,2.44,2.64c0,1.48,0.44,2.48,0.44,1.51
							c0-0.96,0.42-2.1,0.42-2.1c0.51-1.29,1.83-1.39,1.65,0.51c-0.05,0.52-0.16,0.92-0.3,1.23c0,0-0.41,0.9-0.87,1.34
							c-0.02,0.17-0.75,2.29-3.15,3.98c-0.49,0.35-1.09,0.61-1.64,0.76c1.54-0.77,1.93-1.89,1.53-1.91
							c-0.5-0.02-0.84,0.18,0.29-1.44c1.13-1.62,0.7-3.33-0.51-3.67c-1.21-0.34-0.6-0.65-0.81-2.08c-0.14-0.96-1.58-1.45-2.52-1.67
							C158.19,23.65,158.75,23.67,159.25,23.67z"/>
						<path class="st2" d="M164.44,29.69c-0.02,0.17-0.75,2.29-3.15,3.98c-0.72,0.51-1.67,0.84-2.36,0.9c-0.2,0.02-0.38,0.02-0.53,0
							c0.29,0.9,0.92,2.48,1.77,2.35c2.8-0.4,4.69-5.03,4.69-5.03l-0.08-2.61C164.67,29.44,164.56,29.58,164.44,29.69z"/>
						<path class="st78" d="M163.12,33c0.87-1.14,1.42-2.44,1.67-3.08l-0.02-0.62c-0.1,0.15-0.21,0.29-0.33,0.39
							c-0.02,0.17-0.75,2.29-3.15,3.98c-0.72,0.51-1.67,0.84-2.36,0.9c-0.2,0.02-0.38,0.02-0.53,0c0.07,0.23,0.17,0.5,0.28,0.78
							C160.32,35.89,162.05,34.42,163.12,33z"/>
						<g>
							<path class="st2" d="M156.61,51.86c0,0-0.67,0.12-1.81-0.17c-1.15-0.29-3.34-0.71-4.28-0.89c-0.93-0.18-1.53-0.35-1.72-0.34
								c-0.19,0.01-1.83,0.71-2.18,0.92c-0.35,0.21-0.46,0.65-0.46,0.65l0.51,0.76l0.43-0.24c0,0-0.14,0.25-0.2,0.67
								c-0.06,0.42,0.15,0.29,0.15,0.29l0.7,0.13l0.63-0.29c0,0-0.04,0.23-0.03,0.4c0.01,0.17,0.84,0.13,0.84,0.13
								s1.45-0.64,1.9-0.66c0.45-0.02,0.68,0.07,0.97,0.63c0.3,0.55,0.76,0.76,1.17,0.84c0.41,0.08,1.95,0.47,3.53-0.05
								L156.61,51.86z"/>
							<path class="st79" d="M147.1,52.55c0,0-0.02,0.03-0.04,0.1c0.01,0,0.01,0,0.02,0c0.01-0.01,1.34-0.78,1.83-0.95
								c0.28-0.1,0.93-0.11,1.51-0.12c0.43-0.01,1.01-0.11,1.01-0.11s-0.6,0.01-1.01,0.02c-0.58,0.01-1.24,0.03-1.54,0.13
								C148.38,51.78,147.1,52.55,147.1,52.55z M148.38,53.36c0,0,0,0.03-0.01,0.08c0.14-0.08,1.63-0.9,2-1.03
								c0.31-0.12,1.96-0.23,1.96-0.23s-1.67,0.03-1.99,0.14C149.95,52.47,148.38,53.36,148.38,53.36z"/>
							<path class="st2" d="M151.45,50.99c-0.37-0.5-0.1-0.98,0.33-0.59c0.48,0.44,1.78,1.02,1.78,1.02l0,0
								C152.86,51.26,152.09,51.11,151.45,50.99z"/>
						</g>
						<path class="st12" d="M173.33,61.69c0,0-6.25-5.22-10.53-4.4c-1.78,0.32-3.11,0.57-3.87,10.39
							c-0.95,9.69-3.04,17.99-3.04,17.99h4.43c0,0,4.69-10.14,6.02-15.52c2.6,0.32,5.8-0.37,6.9-2.66
							C174.31,65.31,174.35,62.71,173.33,61.69z"/>
						<g>
							<path d="M166.41,70.17c0.01-0.04,1.46-4.01,0.91-7.74l0,0c-0.01-0.04-0.04-0.06-0.07-0.05c-0.04,0-0.06,0.04-0.06,0.07l0,0
								c0.54,3.7-0.89,7.64-0.9,7.68l0,0c-0.01,0.03,0.01,0.07,0.04,0.08C166.36,70.22,166.4,70.2,166.41,70.17L166.41,70.17z"/>
						</g>
						<path class="st76" d="M174.33,38.62c-0.76-1.62-3.76-3.1-5.46,1.23c-1.86,4.73-0.72,7.69-1.65,10.05
							c-0.93,2.37-8.91,1.27-10.81,1.31c-0.72,1.77-0.13,3.84-0.13,3.84s3.42,0,7.14,1.06c6.59,1.56,9.12-1.56,9.46-3.13
							c0.34-1.56,1.01-4,1.01-4s0,0,0,0c0.25-2.02,0.58-4.1,0.85-5.79C174.98,41.59,174.82,40.01,174.33,38.62z"/>
						<path class="st12" d="M158.83,68.7c0.04-0.34,0.07-0.68,0.11-1.02c0.38-4.97,0.92-7.49,1.58-8.81
							c-1.21-0.11-2.84-0.27-5.07-0.48c-16.63,1.9-18.18,4.35-15.81,10.52c2.37,6.17,9.38,15.63,9.38,15.63s1.6-0.42,4.48-1.18
							c-2.53-9.63-4.98-9.46-7.27-14.27C154.42,70.34,158.83,68.7,158.83,68.7z"/>
						<linearGradient id="SVGID_3_" gradientUnits="userSpaceOnUse" x1="152.724" y1="89.4956" x2="160.5277" y2="89.4956">
							<stop  offset="0" style="stop-color:#3D342B"/>
							<stop  offset="1" style="stop-color:#291C17"/>
						</linearGradient>
						<path class="st80" d="M160.21,85.67c0,0,0.59,3.04,0.17,4.73c-0.42,1.69-0.76,2.92-3.63,2.92c-2.87,0-4.31,0.13-3.97-1.1
							c0.34-1.22,1.44-2.66,1.86-3.59c0.42-0.93,1.27-2.96,1.27-2.96H160.21z"/>
						<linearGradient id="SVGID_4_" gradientUnits="userSpaceOnUse" x1="144.1797" y1="86.1554" x2="154.8995" y2="86.1554">
							<stop  offset="0" style="stop-color:#3D342B"/>
							<stop  offset="1" style="stop-color:#291C17"/>
						</linearGradient>
						<path class="st81" d="M153.49,83.35c0,0,2.2,4.31,1.1,5.15c-1.1,0.84-7.1,0-9.25,0.42c-2.15,0.42-1.22-2.7,2.11-3.13
							c1.81-0.46,1.56-1.27,1.56-1.27L153.49,83.35z"/>
						<path class="st55" d="M157.54,58.39v36.7c0,0,0.18,0.25,0.66,0.25c0.48,0,0.62-0.25,0.62-0.25V58.5L157.54,58.39z"/>
						<path class="st82" d="M167.22,49.9c0.93-2.36-0.21-5.32,1.65-10.05c0.21-0.55,0.45-1,0.7-1.38l0,0c0,0-1.93,1.67-2.6,6.44
							c-0.67,4.77-0.42,4.39-2.32,4.77c-1.9,0.38-0.21,1.18-2.45,1.18c-0.87,0-2.87,0.07-5.78,0.34
							C159.5,51.38,166.53,51.64,167.22,49.9z"/>
						<path class="st82" d="M173.9,48.89c0,0.03-0.01,0.06-0.01,0.09c0,0,0,0,0,0s-0.67,2.44-1.01,4c-0.34,1.56-2.87,4.69-9.46,3.13
							c-0.15-0.04-0.29-0.08-0.44-0.12c0.04,0.03,0.93,0.74,3.15,1.08c2.28,0.35,3.93-0.06,5.67,0.92c1.02,0.58,1.94,1.24,2.53,2.18
							c-0.02-1.54-0.23-3-0.61-4.78C173.41,53.92,173.59,51.45,173.9,48.89z"/>
						<linearGradient id="SVGID_5_" gradientUnits="userSpaceOnUse" x1="138.3711" y1="50.6596" x2="138.3711" y2="58.3443">
							<stop  offset="0" style="stop-color:#E8D68C"/>
							<stop  offset="0.0382" style="stop-color:#E8CB76"/>
							<stop  offset="0.0911" style="stop-color:#E8C05E"/>
							<stop  offset="0.1518" style="stop-color:#E8B84C"/>
							<stop  offset="0.2241" style="stop-color:#E8B240"/>
							<stop  offset="0.3194" style="stop-color:#E8AE38"/>
							<stop  offset="0.5281" style="stop-color:#E8AD36"/>
						</linearGradient>
						<path class="st83" d="M162.78,55.94c0,0-8.6,1.73-24.18,1.73c-15.59,0-24.64-1.27-24.64-1.27v2.66c0,0,9.06,1.27,24.64,1.27
							c15.59,0,24.18-1.73,24.18-1.73V55.94z"/>
						<linearGradient id="SVGID_6_" gradientUnits="userSpaceOnUse" x1="113.958" y1="56.1484" x2="162.7842" y2="56.1484">
							<stop  offset="0" style="stop-color:#E8D68C"/>
							<stop  offset="1" style="stop-color:#E8CC47"/>
						</linearGradient>
						<path class="st84" d="M162.78,55.94c0,0-2.01-1.31-25.32-1.31c-10.65,0-22.78,1.05-23.5,1.77c0,0,9.06,1.27,24.64,1.27
							C154.19,57.67,162.78,55.94,162.78,55.94z"/>
						<linearGradient id="SVGID_7_" gradientUnits="userSpaceOnUse" x1="131.2598" y1="42.8491" x2="141.6503" y2="58.3081">
							<stop  offset="0" style="stop-color:#A3968C"/>
							<stop  offset="1" style="stop-color:#7F7269"/>
						</linearGradient>
						<path class="st85" d="M148.42,55.34l-7.22-15.58c0,0-19.45,0-20.36,0c-0.5,0-0.31,0.25-0.12,0.67
							c0.19,0.42,6.91,14.92,6.91,14.92H148.42z"/>
						<path class="st86" d="M127.64,55.34h20.78v0.68c0,0-20.01,0-20.2,0C127.66,56.02,127.64,55.34,127.64,55.34z"/>
						<polygon class="st86" points="148.42,55.34 141.2,39.76 141.75,40.13 148.8,55.34 						"/>
						<path class="st86" d="M148.42,55.34c0,0,5.69,0,6,0c0.46,0,0.4,0.68,0.4,0.68h-6.4V55.34z"/>
						<rect x="148.78" y="55.34" class="st87" width="0.05" height="0.68"/>
						<rect x="148.41" y="55.34" class="st87" width="0.05" height="0.68"/>
						<rect x="149.78" y="55.51" class="st87" width="0.8" height="0.31"/>
						<rect x="150.76" y="55.51" class="st87" width="0.8" height="0.31"/>
						<rect x="152.56" y="55.62" class="st87" width="1.85" height="0.09"/>
						<path class="st87" d="M148,55.68c0,0.11-0.08,0.19-0.19,0.19s-0.19-0.09-0.19-0.19c0-0.1,0.08-0.19,0.19-0.19
							S148,55.57,148,55.68z"/>
						<path class="st82" d="M153.01,48.95c-0.03-0.19-0.06-0.37-0.09-0.53c-0.57-3.1-0.19-5.32-0.19-6.46c0-0.62,0.05-2.03,0.2-3.29
							v0c0,0-1.04,2.62-1.04,5.45c0,2.83-0.04,2.89-0.04,4.01c0,1.09,0.28,1.93,0.22,2.74C152.27,50.46,152.59,49.83,153.01,48.95z"
							/>
						<path class="st82" d="M173.89,40.31c0,1.69,0.63,4.28-0.59,12.16l0.31-0.56c0.17-2.77,0.73-6.19,1.13-8.73
							c0.59-3.8-1.16-7.56-4.11-8.73c-2.95-1.17-5.78-2.54-5.78-2.54s1.18,1.1,5.58,3.21C172.24,36.42,173.89,38.62,173.89,40.31z"
							/>
						<linearGradient id="SVGID_8_" gradientUnits="userSpaceOnUse" x1="120.524" y1="47.5523" x2="141.2725" y2="47.5523">
							<stop  offset="0" style="stop-color:#A3968C"/>
							<stop  offset="1" style="stop-color:#7F7269"/>
						</linearGradient>
						<path class="st88" d="M141.2,39.76c0,0-19.45,0-20.36,0c-0.5,0-0.31,0.25-0.12,0.67c0.19,0.42,6.91,14.92,6.91,14.92h1.28
							l12.35-15.43L141.2,39.76z"/>
					</g>
				</g>
				<g>
					<g class="st37">
						<path class="st31" d="M123.54,55.02c0,0.5-0.4,0.9-0.9,0.9h-3.45c-0.5,0-0.9-0.41-0.9-0.9v-4.5h5.25V55.02z"/>
					</g>
					<path class="st89" d="M125.03,51.29c-0.36-0.29-0.86-0.44-1.49-0.43v0.75c0.42-0.01,0.74,0.07,0.94,0.23
						c0.23,0.19,0.32,0.51,0.29,0.97c-0.04,0.51-0.32,1.17-0.76,1.45c-0.15,0.09-0.3,0.13-0.46,0.12v0.64c0,0.04,0,0.07-0.01,0.11
						c0.33,0.01,0.65-0.07,0.94-0.25c0.7-0.43,1.07-1.32,1.12-2.01C125.64,52.17,125.45,51.64,125.03,51.29z"/>
					<path class="st90" d="M123.54,50.86v0.75c0.09,0,0.18,0,0.26,0.01v-0.75C123.71,50.87,123.63,50.86,123.54,50.86z
						 M123.54,55.02c0,0.04,0,0.07-0.01,0.11c0.09,0,0.18,0,0.26-0.01c0-0.03,0.01-0.06,0.01-0.1v-0.67
						c-0.08,0.02-0.17,0.04-0.26,0.03V55.02z"/>
					<path class="st91" d="M119,55.9c0.06,0.01,0.12,0.02,0.18,0.02h0.79v-5.41H119V55.9z"/>
				</g>
			</g>
		</g>
	</g>
	<path class="st13" d="M62.7,72.73c0,0-7.64-8.81-2.75-13.18c4.89-4.37,9.21-2.31,14.33,5.42c4.41,6.65,9.37,13.3,12.13,14.9
		c2.75,1.6,21.22,2.09,21.22,2.09s2.2,0.74,2.2,3.57c0,2.83-1.03,4.19-4.96,4.19c-3.93,0-11.26,0-17.67,0
		c-6.41,0-11.78-2.22-15.19-6.28C68.6,79.38,62.7,72.73,62.7,72.73z"/>
</g>
</svg>
