<svg xmlns="http://www.w3.org/2000/svg" viewBox="0 0 300.46 338.07"><defs><style>.cls-1{fill:red;}</style></defs><title>mylogo</title><g id="Layer_2" data-name="Layer 2"><path class="cls-1" d="M409.72,324.9A153.15,153.15,0,0,0,426.29,333C420.13,329.79,414.64,327.11,409.72,324.9Z" transform="translate(-212.98 -171.24)"/><path class="cls-1" d="M513.19,508.14c.07-.42.15-.85.25-1.27l-48.57-63.41-2.3-3L371.71,322.18c-1.17,7.85-13-20.24,38,2.72-14.07-7.73-29-17.18-32-17.58-4.28-.57,14.86-26.29,14.86-26.29l42.57-49.14L480.86,173s-12,.65-38.86-.57S381.14,199,381.14,199l-100,126.86s-.85-28.86-.85-94.57C261.43,167,213,171.3,213,171.3l1.41,332.34c-.33-10.31,30.62-100.07,95.24-121,0,0-14.13-39.13-18.26-49.19-2.91-7.07,29.77,40.25,38.48,50.59,0,0,87.41,139.39,183.34,124.14Z" transform="translate(-212.98 -171.24)"/></g><g id="Layer_3" data-name="Layer 3"><g id="Layer_4" data-name="Layer 4"><path class="cls-1" d="M512.2,395.84c0-.1,0-.21,0-.32s0-.2,0-.3l0-.29v-.09c-.23-3.39-.41-6.77-.54-10.16a76.24,76.24,0,0,1-.5-18.21c0-.26,0-.53,0-.79,0-.81,0-1.62.05-2.43a28.53,28.53,0,0,1-.06-3.7l-75.37,1.23a12.76,12.76,0,0,0,1,25.51l37.71-2.38a9.46,9.46,0,0,1,9.92,9.25l2,59.43a5.63,5.63,0,0,1-8.15,5.36c-17.07-8.86-53.86-27.9-53.43-27.27,1.55,2.76,5.44,10.08,8.56,16a42.11,42.11,0,0,0,12,14l64.32,48.11a17.44,17.44,0,0,1,2.61-.2h.26a2.09,2.09,0,0,0,.58-1.5l-1.33-109A6.84,6.84,0,0,1,512.2,395.84Z" transform="translate(-212.98 -171.24)"/><circle class="cls-1" cx="255.34" cy="241.9" r="9.11"/></g></g></svg>